<?xml version="1.0" encoding="UTF-8"?>
<svg class="sourcr" 
xmlns="http://www.w3.org/2000/svg" 
viewBox="0 0 330.66666 70" 
version="1.1"
>
<style type="text/css">
	.st0{fill:#111111;}
	.st1{fill:#E94878;}
</style>
<g class="g">
	<path class="st0" d="M63.9,50.9c-3.5-1.5-6.1-3.9-7.9-7l6.4-5.5c1.1,2.6,2.9,4.4,5.3,5.6c2.4,1.2,5.2,1.8,8.6,1.8   c3,0,5.4-0.5,7-1.5c1.7-1,2.5-2.3,2.5-3.9c0-1.4-0.8-2.6-2.3-3.4c-1.5-0.9-4.2-1.7-8-2.5c-6.6-1.2-11.2-2.9-13.9-5   c-2.7-2.1-4-5-4-8.8c0-2.4,0.7-4.7,2.2-6.8s3.6-3.8,6.5-5.1c2.8-1.3,6.2-1.9,10-1.9c4.9,0,8.9,0.8,11.9,2.5c3,1.6,5.3,4.2,6.9,7.6   l-6.8,5c-1.1-2.6-2.6-4.5-4.5-5.8c-1.9-1.2-4.4-1.8-7.4-1.8c-2.7,0-4.9,0.6-6.6,1.7c-1.8,1.1-2.6,2.4-2.6,3.8   c0,1.6,0.8,2.9,2.4,3.8s4.4,1.8,8.6,2.6c6.3,1.1,10.8,2.7,13.4,4.8s3.9,5,3.9,8.7c0,4-1.7,7.2-5.2,9.7c-3.4,2.5-8.2,3.7-14.3,3.7   C71.4,53.2,67.4,52.4,63.9,50.9z"/>
	<path class="st0" d="M137.4,13c3.9,4.1,5.9,9.8,5.9,17s-2,12.9-5.9,17s-9.4,6.2-16.3,6.2s-12.4-2.1-16.3-6.2s-5.9-9.8-5.9-17   s2-12.9,5.9-17s9.4-6.2,16.3-6.2S133.5,8.9,137.4,13z M111.8,18.4c-2.2,2.7-3.3,6.6-3.3,11.6s1.1,8.9,3.3,11.6   c2.2,2.7,5.3,4.1,9.3,4.1s7.2-1.4,9.4-4.1c2.2-2.7,3.3-6.6,3.3-11.6s-1.1-8.9-3.3-11.6s-5.3-4.1-9.4-4.1   C117.1,14.3,113.9,15.7,111.8,18.4z"/>
	<path class="st0" d="M188.8,7.7v44.6h-8.5l-0.4-7.2c-3,5.4-8.3,8.1-15.9,8.1c-4.8,0-8.7-1.3-11.6-4c-2.9-2.6-4.4-6.7-4.4-12.2V7.7   h9.5v26.8c0,3.9,0.8,6.7,2.3,8.3s3.8,2.5,6.9,2.5c3.6,0,6.6-1.1,9-3.4c2.3-2.3,3.5-5.7,3.5-10.1V7.7H188.8z"/>
	<path class="st0" d="M226.1,7.7l-1.5,8.7c-1.4-0.8-3.2-1.2-5.6-1.2c-1.9,0-3.7,0.5-5.4,1.5s-3.1,2.5-4.2,4.5   c-1.1,2-1.7,4.5-1.7,7.3v23.6h-9.5V7.7h8.1l0.8,8c2.5-5.9,7.2-8.9,14.1-8.9C223.3,6.8,225,7.1,226.1,7.7z"/>
	<path class="st0" d="M269.1,19.3l-8.9,3.6c-1.5-5.6-5-8.5-10.4-8.5c-4,0-7.1,1.4-9.3,4.1s-3.3,6.6-3.3,11.6s1.1,8.8,3.3,11.5   c2.2,2.7,5.3,4,9.3,4c3,0,5.5-0.7,7.3-2.2s3.1-3.6,3.7-6.4l8.7,2.9c-1.3,4.2-3.6,7.4-7,9.8c-3.3,2.3-7.5,3.5-12.6,3.5   c-7,0-12.5-2.1-16.5-6.2s-5.9-9.8-5.9-17s2-12.9,5.9-17s9.4-6.2,16.3-6.2C259.5,6.8,266,11,269.1,19.3z"/>
	<path class="st0" d="M305,7.7l-1.5,8.7c-1.4-0.8-3.2-1.2-5.6-1.2c-1.9,0-3.7,0.5-5.4,1.5c-1.7,1-3.1,2.5-4.2,4.5s-1.7,4.5-1.7,7.3   v23.6h-9.5V7.7h8.1l0.8,8c2.5-5.9,7.2-8.9,14.1-8.9C302.1,6.8,303.8,7.1,305,7.7z"/>
</g>
<path class="st1" d="M36.2,31.2L36.2,31.2h-10l0,0c-4,0-7.3-3.3-7.3-7.3s3.3-7.3,7.3-7.3l0,0l0,0h17.1v-9H26.2l0,0  C17.3,7.7,10,15,10,24c0,6.9,4.3,12.7,10.3,15.1l-7.8,13.4h10.4L30,40.2h6.1l0,0c4,0,7.3,3.3,7.3,7.3l0,0v4.9h9v-4.9  C52.3,38.5,45.1,31.3,36.2,31.2z"/>
<rect x="301" y="43.4" class="st1" width="9" height="9"/>
</svg>
